<mxfile host="app.diagrams.net" modified="2023-05-16T17:51:40.408Z" agent="Mozilla/5.0 (Macintosh; Intel Mac OS X 10_15_7) AppleWebKit/537.36 (KHTML, like Gecko) Chrome/112.0.0.0 Safari/537.36" version="21.3.2" etag="fA456V1a2uWG_Fbd69db" type="github">
  <diagram name="Page-1" id="jSvrFgqHjhgfSm3mpcHO">
    <mxGraphModel>
      <root>
        <mxCell id="0" />
        <mxCell id="1" parent="0" />
      </root>
    </mxGraphModel>
  </diagram>
</mxfile>
